<svg width="108" height="8" viewBox="0 0 108 8" fill="none" xmlns="http://www.w3.org/2000/svg">
<path id="connector 1" d="M0 4C0 6.20914 1.79086 8 4 8C6.20914 8 8 6.20914 8 4C8 1.79086 6.20914 0 4 0C1.79086 0 0 1.79086 0 4ZM100 4C100 6.20914 101.791 8 104 8C106.209 8 108 6.20914 108 4C108 1.79086 106.209 0 104 0C101.791 0 100 1.79086 100 4ZM8.16667 4.75C8.58088 4.75 8.91667 4.41421 8.91667 4C8.91667 3.58579 8.58088 3.25 8.16667 3.25V4.75ZM16.5 3.25C16.0858 3.25 15.75 3.58579 15.75 4C15.75 4.41421 16.0858 4.75 16.5 4.75V3.25ZM24.8333 4.75C25.2475 4.75 25.5833 4.41421 25.5833 4C25.5833 3.58579 25.2475 3.25 24.8333 3.25V4.75ZM33.1667 3.25C32.7524 3.25 32.4167 3.58579 32.4167 4C32.4167 4.41421 32.7524 4.75 33.1667 4.75V3.25ZM41.5 4.75C41.9142 4.75 42.25 4.41421 42.25 4C42.25 3.58579 41.9142 3.25 41.5 3.25V4.75ZM49.8333 3.25C49.4191 3.25 49.0833 3.58579 49.0833 4C49.0833 4.41421 49.4191 4.75 49.8333 4.75V3.25ZM58.1667 4.75C58.5809 4.75 58.9167 4.41421 58.9167 4C58.9167 3.58579 58.5809 3.25 58.1667 3.25V4.75ZM66.5 3.25C66.0858 3.25 65.75 3.58579 65.75 4C65.75 4.41421 66.0858 4.75 66.5 4.75V3.25ZM74.8333 4.75C75.2475 4.75 75.5833 4.41421 75.5833 4C75.5833 3.58579 75.2475 3.25 74.8333 3.25V4.75ZM83.1667 3.25C82.7525 3.25 82.4167 3.58579 82.4167 4C82.4167 4.41421 82.7525 4.75 83.1667 4.75V3.25ZM91.5 4.75C91.9142 4.75 92.25 4.41421 92.25 4C92.25 3.58579 91.9142 3.25 91.5 3.25V4.75ZM99.8333 3.25C99.4191 3.25 99.0833 3.58579 99.0833 4C99.0833 4.41421 99.4191 4.75 99.8333 4.75V3.25ZM4 4.75L8.16667 4.75V3.25L4 3.25V4.75ZM16.5 4.75L24.8333 4.75V3.25L16.5 3.25V4.75ZM33.1667 4.75L41.5 4.75V3.25L33.1667 3.25V4.75ZM49.8333 4.75L58.1667 4.75V3.25L49.8333 3.25V4.75ZM66.5 4.75L74.8333 4.75V3.25L66.5 3.25V4.75ZM83.1667 4.75L91.5 4.75V3.25L83.1667 3.25V4.75ZM99.8333 4.75L104 4.75V3.25L99.8333 3.25V4.75Z" fill="#B1B1D0"/>
</svg>
