<svg width="50" height="50" viewBox="0 0 50 50" fill="none" xmlns="http://www.w3.org/2000/svg">
<g id="no photo">
<rect id="Rectangle 2710" width="50" height="50" fill="#D9D9D9"/>
<g id="no_photography">
<mask id="mask0_705_3360" style="mask-type:alpha" maskUnits="userSpaceOnUse" x="13" y="13" width="24" height="24">
<rect id="Bounding box" x="13" y="13" width="24" height="24" fill="#D9D9D9"/>
</mask>
<g mask="url(#mask0_705_3360)">
<path id="no_photography_2" d="M34.9998 32.125L32.9998 30.125V20H28.9498L27.1248 18H22.8748L21.9248 19.05L20.4998 17.625L21.9998 16H27.9998L29.8498 18H32.9998C33.5498 18 34.0206 18.1958 34.4123 18.5875C34.804 18.9792 34.9998 19.45 34.9998 20V32.125ZM16.9998 34C16.4498 34 15.979 33.8042 15.5873 33.4125C15.1956 33.0208 14.9998 32.55 14.9998 32V20C14.9998 19.45 15.1956 18.9792 15.5873 18.5875C15.979 18.1958 16.4498 18 16.9998 18H18.0248L20.0248 20H16.9998V32H32.0248L34.0248 34H16.9998ZM28.6498 28.625C28.2331 29.1917 27.7123 29.6458 27.0873 29.9875C26.4623 30.3292 25.7665 30.5 24.9998 30.5C23.7498 30.5 22.6873 30.0625 21.8123 29.1875C20.9373 28.3125 20.4998 27.25 20.4998 26C20.4998 25.2333 20.6706 24.5375 21.0123 23.9125C21.354 23.2875 21.8081 22.7667 22.3748 22.35L23.8248 23.8C23.4248 24.0167 23.104 24.3167 22.8623 24.7C22.6206 25.0833 22.4998 25.5167 22.4998 26C22.4998 26.7 22.7415 27.2917 23.2248 27.775C23.7081 28.2583 24.2998 28.5 24.9998 28.5C25.4831 28.5 25.9165 28.3792 26.2998 28.1375C26.6831 27.8958 26.9831 27.575 27.1998 27.175L28.6498 28.625ZM28.1998 22.8C28.6165 23.2 28.9373 23.675 29.1623 24.225C29.3873 24.775 29.4998 25.3667 29.4998 26V26.3C29.4998 26.4 29.4915 26.5 29.4748 26.6L24.3998 21.525C24.4998 21.5083 24.5998 21.5 24.6998 21.5H24.9998C25.6331 21.5 26.2248 21.6125 26.7748 21.8375C27.3248 22.0625 27.7998 22.3833 28.1998 22.8ZM33.4748 36.3L13.6748 16.5L15.0998 15.075L34.8998 34.875L33.4748 36.3Z" fill="black"/>
</g>
</g>
</g>
</svg>
